<?xml version="1.0" encoding="UTF-8" standalone="no"?>
<!DOCTYPE svg PUBLIC "-//W3C//DTD SVG 1.1//EN"
 "http://www.w3.org/Graphics/SVG/1.1/DTD/svg11.dtd">
<!-- Generated by graphviz version 2.43.0 (0)
 -->
<!-- Title: alu_structural Pages: 1 -->
<svg width="1833pt" height="726pt"
 viewBox="0.00 0.00 1833.20 726.20" xmlns="http://www.w3.org/2000/svg" xmlns:xlink="http://www.w3.org/1999/xlink">
<g id="graph0" class="graph" transform="scale(1 1) rotate(0) translate(21.6 704.6)">
<title>alu_structural</title>
<polygon fill="white" stroke="transparent" points="-21.6,21.6 -21.6,-704.6 1811.6,-704.6 1811.6,21.6 -21.6,21.6"/>
<!-- a_i&#45;&gt;premask -->
<g id="edge1" class="edge">
<title>a_i:e&#45;&gt;premask:w</title>
<path fill="none" stroke="#111827" stroke-width="2" d="M130,-493C130,-493 262,-493 262,-493"/>
<polygon fill="#111827" stroke="#111827" stroke-width="2" points="262,-496.5 272,-493 262,-489.5 262,-496.5"/>
</g>
<!-- b_i&#45;&gt;premask -->
<g id="edge2" class="edge">
<title>b_i:e&#45;&gt;premask:w</title>
<path fill="none" stroke="#111827" stroke-width="2" d="M130,-397C130,-397 262,-397 262,-397"/>
<polygon fill="#111827" stroke="#111827" stroke-width="2" points="262,-400.5 272,-397 262,-393.5 262,-400.5"/>
</g>
<!-- op_i&#45;&gt;premask -->
<g id="edge4" class="edge">
<title>op_i:e&#45;&gt;premask:sw</title>
<path fill="none" stroke="#6b7280" stroke-width="2" stroke-dasharray="5,2" d="M130,-197C130,-197 302.67,-197 302.67,-197 302.67,-197 302.67,-378 302.67,-378"/>
<polygon fill="#6b7280" stroke="#6b7280" stroke-width="2" points="299.17,-378 302.67,-388 306.17,-378 299.17,-378"/>
</g>
<!-- word_op_i&#45;&gt;premask -->
<g id="edge3" class="edge">
<title>word_op_i:e&#45;&gt;premask:sw</title>
<path fill="none" stroke="#6b7280" stroke-width="2" stroke-dasharray="5,2" d="M130,-90C130,-90 333.83,-90 333.83,-90 333.83,-90 333.83,-378 333.83,-378"/>
<polygon fill="#6b7280" stroke="#6b7280" stroke-width="2" points="330.33,-378 333.83,-388 337.33,-378 330.33,-378"/>
</g>
<!-- word_op_i&#45;&gt;postext -->
<g id="edge19" class="edge">
<title>word_op_i:e&#45;&gt;postext:sw</title>
<path fill="none" stroke="#6b7280" stroke-width="2" stroke-dasharray="5,2" d="M130,-76C130,-76 1445,-76 1445,-76 1445,-76 1445,-214 1445,-214"/>
<polygon fill="#6b7280" stroke="#6b7280" stroke-width="2" points="1441.5,-214 1445,-224 1448.5,-214 1441.5,-214"/>
</g>
<!-- premask&#45;&gt;adder -->
<g id="edge5" class="edge">
<title>premask:e&#45;&gt;adder:w</title>
<path fill="none" stroke="#111827" stroke-width="2" d="M458,-495C458,-495 694,-495 694,-495"/>
<polygon fill="#111827" stroke="#111827" stroke-width="2" points="694,-498.5 704,-495 694,-491.5 694,-498.5"/>
</g>
<!-- premask&#45;&gt;cmp -->
<g id="edge6" class="edge">
<title>premask:e&#45;&gt;cmp:w</title>
<path fill="none" stroke="#111827" stroke-width="2" d="M427.33,-445C427.33,-445 427.33,-375 427.33,-375 427.33,-375 694,-375 694,-375"/>
<polygon fill="#111827" stroke="#111827" stroke-width="2" points="694,-378.5 704,-375 694,-371.5 694,-378.5"/>
</g>
<!-- premask&#45;&gt;shifter -->
<g id="edge7" class="edge">
<title>premask:e&#45;&gt;shifter:w</title>
<path fill="none" stroke="#111827" stroke-width="2" d="M396.17,-445C396.17,-445 396.17,-212 396.17,-212 396.17,-212 694,-212 694,-212"/>
<polygon fill="#111827" stroke="#111827" stroke-width="2" points="694,-215.5 704,-212 694,-208.5 694,-215.5"/>
</g>
<!-- premask&#45;&gt;logic_blk -->
<g id="edge8" class="edge">
<title>premask:e&#45;&gt;logic_blk:w</title>
<path fill="none" stroke="#111827" stroke-width="2" d="M365,-445C365,-445 365,-25 365,-25 365,-25 694,-25 694,-25"/>
<polygon fill="#111827" stroke="#111827" stroke-width="2" points="694,-28.5 704,-25 694,-21.5 694,-28.5"/>
</g>
<!-- adder&#45;&gt;cmp -->
<g id="edge9" class="edge">
<title>adder:s&#45;&gt;cmp:n</title>
<path fill="none" stroke="#dc2626" stroke-width="3" d="M771.33,-489C771.33,-489 771.33,-398 771.33,-398"/>
<polygon fill="#dc2626" stroke="#dc2626" stroke-width="3" points="774.83,-398 771.33,-388 767.83,-398 774.83,-398"/>
<text text-anchor="middle" x="740.83" y="-446.9" font-family="Helvetica,sans-Serif" font-size="12.00">adder_out</text>
</g>
<!-- adder&#45;&gt;opmux -->
<g id="edge10" class="edge">
<title>adder:e&#45;&gt;opmux:nw</title>
<path fill="none" stroke="#111827" stroke-width="2" d="M906,-496C906,-496 1125.5,-496 1125.5,-496 1125.5,-496 1125.5,-444 1125.5,-444"/>
<polygon fill="#111827" stroke="#111827" stroke-width="2" points="1129,-444 1125.5,-434 1122,-444 1129,-444"/>
</g>
<!-- adder&#45;&gt;adder_out_o -->
<g id="edge11" class="edge">
<title>adder:e&#45;&gt;adder_out_o:w</title>
<path fill="none" stroke="#111827" stroke-width="2" d="M906,-525C906,-525 1650,-525 1650,-525"/>
<polygon fill="#111827" stroke="#111827" stroke-width="2" points="1650,-528.5 1660,-525 1650,-521.5 1650,-528.5"/>
</g>
<!-- cmp&#45;&gt;opmux -->
<g id="edge12" class="edge">
<title>cmp:e&#45;&gt;opmux:w</title>
<path fill="none" stroke="#111827" stroke-width="2" d="M906,-359C906,-359 1047,-359 1047,-359"/>
<polygon fill="#111827" stroke="#111827" stroke-width="2" points="1047,-362.5 1057,-359 1047,-355.5 1047,-362.5"/>
</g>
<!-- cmp&#45;&gt;cmp_lt_o -->
<g id="edge13" class="edge">
<title>cmp:e&#45;&gt;cmp_lt_o:w</title>
<path fill="none" stroke="#111827" stroke-width="2" d="M838.67,-345C838.67,-345 838.67,-461 838.67,-461 838.67,-461 1725,-461 1725,-461 1725,-461 1725,-395 1725,-395"/>
<polygon fill="#111827" stroke="#111827" stroke-width="2" points="1728.5,-395 1725,-385 1721.5,-395 1728.5,-395"/>
</g>
<!-- cmp&#45;&gt;eq_o -->
<g id="edge14" class="edge">
<title>cmp:e&#45;&gt;eq_o:w</title>
<path fill="none" stroke="#111827" stroke-width="2" d="M906,-330C906,-330 981.5,-330 981.5,-330 981.5,-330 981.5,-111 981.5,-111 981.5,-111 1650,-111 1650,-111"/>
<polygon fill="#111827" stroke="#111827" stroke-width="2" points="1650,-114.5 1660,-111 1650,-107.5 1650,-114.5"/>
</g>
<!-- shifter&#45;&gt;opmux -->
<g id="edge15" class="edge">
<title>shifter:e&#45;&gt;opmux:w</title>
<path fill="none" stroke="#111827" stroke-width="2" d="M906,-185C906,-185 1047,-185 1047,-185"/>
<polygon fill="#111827" stroke="#111827" stroke-width="2" points="1047,-188.5 1057,-185 1047,-181.5 1047,-188.5"/>
</g>
<!-- logic_blk&#45;&gt;opmux -->
<g id="edge16" class="edge">
<title>logic_blk:e&#45;&gt;opmux:sw</title>
<path fill="none" stroke="#111827" stroke-width="2" d="M805,-25C805,-25 805,-129 805,-129 805,-129 1047,-129 1047,-129"/>
<polygon fill="#111827" stroke="#111827" stroke-width="2" points="1047,-132.5 1057,-129 1047,-125.5 1047,-132.5"/>
</g>
<!-- opmux&#45;&gt;postext -->
<g id="edge17" class="edge">
<title>opmux:e&#45;&gt;postext:w</title>
<path fill="none" stroke="#111827" stroke-width="2" d="M1273,-275C1273,-275 1363,-275 1363,-275"/>
<polygon fill="#111827" stroke="#111827" stroke-width="2" points="1363,-278.5 1373,-275 1363,-271.5 1363,-278.5"/>
</g>
<!-- postext&#45;&gt;result_o -->
<g id="edge18" class="edge">
<title>postext:e&#45;&gt;result_o:w</title>
<path fill="none" stroke="#111827" stroke-width="2" d="M1517,-275C1517,-275 1650,-275 1650,-275"/>
<polygon fill="#111827" stroke="#111827" stroke-width="2" points="1650,-278.5 1660,-275 1650,-271.5 1650,-278.5"/>
</g>
<!-- title -->
<g id="node1" class="node">
<title>title</title>
<text text-anchor="middle" x="885" y="-660" font-family="Helvetica,sans-Serif" font-size="20.00" fill="#7f1d1d">kronos_alu — Structural Decomposition (BOOM/Rocket&#45;style)</text>
</g>
<!-- a_i -->
<g id="node2" class="node">
<title>a_i</title>
<path fill="#e5e7eb" stroke="#9ca3af" stroke-width="2" d="M118,-526.5C118,-526.5 12,-526.5 12,-526.5 6,-526.5 0,-520.5 0,-514.5 0,-514.5 0,-495.5 0,-495.5 0,-489.5 6,-483.5 12,-483.5 12,-483.5 118,-483.5 118,-483.5 124,-483.5 130,-489.5 130,-495.5 130,-495.5 130,-514.5 130,-514.5 130,-520.5 124,-526.5 118,-526.5"/>
<text text-anchor="middle" x="65" y="-501.3" font-family="Helvetica,sans-Serif" font-size="14.00">a_i [63:0]</text>
</g>
<!-- b_i -->
<g id="node3" class="node">
<title>b_i</title>
<path fill="#e5e7eb" stroke="#9ca3af" stroke-width="2" d="M118,-406.5C118,-406.5 12,-406.5 12,-406.5 6,-406.5 0,-400.5 0,-394.5 0,-394.5 0,-375.5 0,-375.5 0,-369.5 6,-363.5 12,-363.5 12,-363.5 118,-363.5 118,-363.5 124,-363.5 130,-369.5 130,-375.5 130,-375.5 130,-394.5 130,-394.5 130,-400.5 124,-406.5 118,-406.5"/>
<text text-anchor="middle" x="65" y="-381.3" font-family="Helvetica,sans-Serif" font-size="14.00">b_i [63:0]</text>
</g>
<!-- op_i -->
<g id="node4" class="node">
<title>op_i</title>
<path fill="#e5e7eb" stroke="#9ca3af" stroke-width="2" d="M118,-226.5C118,-226.5 12,-226.5 12,-226.5 6,-226.5 0,-220.5 0,-214.5 0,-214.5 0,-195.5 0,-195.5 0,-189.5 6,-183.5 12,-183.5 12,-183.5 118,-183.5 118,-183.5 124,-183.5 130,-189.5 130,-195.5 130,-195.5 130,-214.5 130,-214.5 130,-220.5 124,-226.5 118,-226.5"/>
<text text-anchor="middle" x="65" y="-201.6" font-family="Helvetica,sans-Serif" font-size="13.00">op_i (alu_op_e)</text>
</g>
<!-- word_op_i -->
<g id="node5" class="node">
<title>word_op_i</title>
<path fill="#e5e7eb" stroke="#9ca3af" stroke-width="2" d="M118,-106.5C118,-106.5 12,-106.5 12,-106.5 6,-106.5 0,-100.5 0,-94.5 0,-94.5 0,-75.5 0,-75.5 0,-69.5 6,-63.5 12,-63.5 12,-63.5 118,-63.5 118,-63.5 124,-63.5 130,-69.5 130,-75.5 130,-75.5 130,-94.5 130,-94.5 130,-100.5 124,-106.5 118,-106.5"/>
<text text-anchor="middle" x="65" y="-81.6" font-family="Helvetica,sans-Serif" font-size="13.00">word_op_i</text>
</g>
<!-- premask -->
<g id="node6" class="node">
<title>premask</title>
<path fill="#fed7aa" stroke="#fb923c" stroke-width="2" d="M446.5,-502.5C446.5,-502.5 283.5,-502.5 283.5,-502.5 277.5,-502.5 271.5,-496.5 271.5,-490.5 271.5,-490.5 271.5,-399.5 271.5,-399.5 271.5,-393.5 277.5,-387.5 283.5,-387.5 283.5,-387.5 446.5,-387.5 446.5,-387.5 452.5,-387.5 458.5,-393.5 458.5,-399.5 458.5,-399.5 458.5,-490.5 458.5,-490.5 458.5,-496.5 452.5,-502.5 446.5,-502.5"/>
<text text-anchor="middle" x="365" y="-461.4" font-family="Helvetica,sans-Serif" font-size="12.00">Word&#45;op pre&#45;mask</text>
<text text-anchor="middle" x="365" y="-448.4" font-family="Helvetica,sans-Serif" font-size="12.00">a_pre, b_pre, shamt</text>
<text text-anchor="middle" x="365" y="-435.4" font-family="Helvetica,sans-Serif" font-size="12.00">(SRA → sign&#45;ext low 32;</text>
<text text-anchor="middle" x="365" y="-422.4" font-family="Helvetica,sans-Serif" font-size="12.00">else zero&#45;ext low 32)</text>
</g>
<!-- adder -->
<g id="node7" class="node">
<title>adder</title>
<path fill="#fecaca" stroke="#f87171" stroke-width="2" d="M894,-561C894,-561 716,-561 716,-561 710,-561 704,-555 704,-549 704,-549 704,-501 704,-501 704,-495 710,-489 716,-489 716,-489 894,-489 894,-489 900,-489 906,-495 906,-501 906,-501 906,-549 906,-549 906,-555 900,-561 894,-561"/>
<text text-anchor="middle" x="805" y="-534.9" font-family="Helvetica,sans-Serif" font-size="12.00">Adder</text>
<text text-anchor="middle" x="805" y="-521.9" font-family="Helvetica,sans-Serif" font-size="12.00">a + (b ⊕ is_sub) + is_sub</text>
<text text-anchor="middle" x="805" y="-508.9" font-family="Helvetica,sans-Serif" font-size="12.00">(is_sub on SUB / SLT / SLTU)</text>
</g>
<!-- cmp -->
<g id="node8" class="node">
<title>cmp</title>
<path fill="#fecaca" stroke="#f87171" stroke-width="2" d="M894,-388C894,-388 716,-388 716,-388 710,-388 704,-382 704,-376 704,-376 704,-314 704,-314 704,-308 710,-302 716,-302 716,-302 894,-302 894,-302 900,-302 906,-308 906,-314 906,-314 906,-376 906,-376 906,-382 900,-388 894,-388"/>
<text text-anchor="middle" x="805" y="-361.4" font-family="Helvetica,sans-Serif" font-size="12.00">Comparator (from adder)</text>
<text text-anchor="middle" x="805" y="-348.4" font-family="Helvetica,sans-Serif" font-size="12.00">LT = sign&#45;of&#45;(a−b),</text>
<text text-anchor="middle" x="805" y="-335.4" font-family="Helvetica,sans-Serif" font-size="12.00">overflow&#45;corrected</text>
<text text-anchor="middle" x="805" y="-322.4" font-family="Helvetica,sans-Serif" font-size="12.00">EQ = (adder_out == 0)</text>
</g>
<!-- shifter -->
<g id="node9" class="node">
<title>shifter</title>
<path fill="#fecaca" stroke="#f87171" stroke-width="2" d="M894,-228C894,-228 716,-228 716,-228 710,-228 704,-222 704,-216 704,-216 704,-154 704,-154 704,-148 710,-142 716,-142 716,-142 894,-142 894,-142 900,-142 906,-148 906,-154 906,-154 906,-216 906,-216 906,-222 900,-228 894,-228"/>
<text text-anchor="middle" x="805" y="-201.4" font-family="Helvetica,sans-Serif" font-size="12.00">Shifter</text>
<text text-anchor="middle" x="805" y="-188.4" font-family="Helvetica,sans-Serif" font-size="12.00">right&#45;only barrel</text>
<text text-anchor="middle" x="805" y="-175.4" font-family="Helvetica,sans-Serif" font-size="12.00">SLL via {&lt;&lt;{x}} reverse</text>
<text text-anchor="middle" x="805" y="-162.4" font-family="Helvetica,sans-Serif" font-size="12.00">SRA: sign&#45;fill from a_pre[63]</text>
</g>
<!-- logic_blk -->
<g id="node10" class="node">
<title>logic_blk</title>
<path fill="#fecaca" stroke="#f87171" stroke-width="2" d="M894,-50C894,-50 716,-50 716,-50 710,-50 704,-44 704,-38 704,-38 704,-12 704,-12 704,-6 710,0 716,0 716,0 894,0 894,0 900,0 906,-6 906,-12 906,-12 906,-38 906,-38 906,-44 900,-50 894,-50"/>
<text text-anchor="middle" x="805" y="-28.4" font-family="Helvetica,sans-Serif" font-size="12.00">Logic</text>
<text text-anchor="middle" x="805" y="-15.4" font-family="Helvetica,sans-Serif" font-size="12.00">AND / OR / XOR / PASSB</text>
</g>
<!-- opmux -->
<g id="node11" class="node">
<title>opmux</title>
<path fill="#e9d5ff" stroke="#a855f7" stroke-width="3" d="M1261,-433.5C1261,-433.5 1069,-433.5 1069,-433.5 1063,-433.5 1057,-427.5 1057,-421.5 1057,-421.5 1057,-128.5 1057,-128.5 1057,-122.5 1063,-116.5 1069,-116.5 1069,-116.5 1261,-116.5 1261,-116.5 1267,-116.5 1273,-122.5 1273,-128.5 1273,-128.5 1273,-421.5 1273,-421.5 1273,-427.5 1267,-433.5 1261,-433.5"/>
<text text-anchor="middle" x="1165" y="-311.4" font-family="Helvetica,sans-Serif" font-size="12.00" fill="#4a044e">Op&#45;class final mux</text>
<text text-anchor="middle" x="1165" y="-284.4" font-family="Helvetica,sans-Serif" font-size="12.00" fill="#4a044e">is_alu_shift &#160;→ shift_out</text>
<text text-anchor="middle" x="1165" y="-271.4" font-family="Helvetica,sans-Serif" font-size="12.00" fill="#4a044e">is_alu_slt &#160;&#160;&#160;→ {0…0, cmp_lt}</text>
<text text-anchor="middle" x="1165" y="-258.4" font-family="Helvetica,sans-Serif" font-size="12.00" fill="#4a044e">is_alu_logic &#160;→ logic_out</text>
<text text-anchor="middle" x="1165" y="-245.4" font-family="Helvetica,sans-Serif" font-size="12.00" fill="#4a044e">ADD / SUB &#160;&#160;&#160;&#160;→ adder_out</text>
<text text-anchor="middle" x="1165" y="-232.4" font-family="Helvetica,sans-Serif" font-size="12.00" fill="#4a044e">default &#160;&#160;&#160;&#160;&#160;&#160;&#160;→ 0</text>
</g>
<!-- postext -->
<g id="node12" class="node">
<title>postext</title>
<path fill="#fed7aa" stroke="#fb923c" stroke-width="2" d="M1505,-325.5C1505,-325.5 1385,-325.5 1385,-325.5 1379,-325.5 1373,-319.5 1373,-313.5 1373,-313.5 1373,-236.5 1373,-236.5 1373,-230.5 1379,-224.5 1385,-224.5 1385,-224.5 1505,-224.5 1505,-224.5 1511,-224.5 1517,-230.5 1517,-236.5 1517,-236.5 1517,-313.5 1517,-313.5 1517,-319.5 1511,-325.5 1505,-325.5"/>
<text text-anchor="middle" x="1445" y="-291.4" font-family="Helvetica,sans-Serif" font-size="12.00">Post&#45;extend</text>
<text text-anchor="middle" x="1445" y="-278.4" font-family="Helvetica,sans-Serif" font-size="12.00">word_op_i ?</text>
<text text-anchor="middle" x="1445" y="-265.4" font-family="Helvetica,sans-Serif" font-size="12.00"> &#160;sext32→64 :</text>
<text text-anchor="middle" x="1445" y="-252.4" font-family="Helvetica,sans-Serif" font-size="12.00"> &#160;passthrough</text>
</g>
<!-- result_o -->
<g id="node13" class="node">
<title>result_o</title>
<path fill="#e5e7eb" stroke="#9ca3af" stroke-width="2" d="M1778,-296.5C1778,-296.5 1672,-296.5 1672,-296.5 1666,-296.5 1660,-290.5 1660,-284.5 1660,-284.5 1660,-265.5 1660,-265.5 1660,-259.5 1666,-253.5 1672,-253.5 1672,-253.5 1778,-253.5 1778,-253.5 1784,-253.5 1790,-259.5 1790,-265.5 1790,-265.5 1790,-284.5 1790,-284.5 1790,-290.5 1784,-296.5 1778,-296.5"/>
<text text-anchor="middle" x="1725" y="-271.6" font-family="Helvetica,sans-Serif" font-size="13.00">result_o [63:0]</text>
</g>
<!-- adder_out_o -->
<g id="node14" class="node">
<title>adder_out_o</title>
<path fill="#e5e7eb" stroke="#9ca3af" stroke-width="2" d="M1778,-546.5C1778,-546.5 1672,-546.5 1672,-546.5 1666,-546.5 1660,-540.5 1660,-534.5 1660,-534.5 1660,-515.5 1660,-515.5 1660,-509.5 1666,-503.5 1672,-503.5 1672,-503.5 1778,-503.5 1778,-503.5 1784,-503.5 1790,-509.5 1790,-515.5 1790,-515.5 1790,-534.5 1790,-534.5 1790,-540.5 1784,-546.5 1778,-546.5"/>
<text text-anchor="middle" x="1725" y="-521.6" font-family="Helvetica,sans-Serif" font-size="13.00">adder_out_o [63:0]</text>
</g>
<!-- cmp_lt_o -->
<g id="node15" class="node">
<title>cmp_lt_o</title>
<path fill="#e5e7eb" stroke="#9ca3af" stroke-width="2" d="M1778,-406.5C1778,-406.5 1672,-406.5 1672,-406.5 1666,-406.5 1660,-400.5 1660,-394.5 1660,-394.5 1660,-375.5 1660,-375.5 1660,-369.5 1666,-363.5 1672,-363.5 1672,-363.5 1778,-363.5 1778,-363.5 1784,-363.5 1790,-369.5 1790,-375.5 1790,-375.5 1790,-394.5 1790,-394.5 1790,-400.5 1784,-406.5 1778,-406.5"/>
<text text-anchor="middle" x="1725" y="-381.6" font-family="Helvetica,sans-Serif" font-size="13.00">cmp_lt_o</text>
</g>
<!-- eq_o -->
<g id="node16" class="node">
<title>eq_o</title>
<path fill="#e5e7eb" stroke="#9ca3af" stroke-width="2" d="M1778,-146.5C1778,-146.5 1672,-146.5 1672,-146.5 1666,-146.5 1660,-140.5 1660,-134.5 1660,-134.5 1660,-115.5 1660,-115.5 1660,-109.5 1666,-103.5 1672,-103.5 1672,-103.5 1778,-103.5 1778,-103.5 1784,-103.5 1790,-109.5 1790,-115.5 1790,-115.5 1790,-134.5 1790,-134.5 1790,-140.5 1784,-146.5 1778,-146.5"/>
<text text-anchor="middle" x="1725" y="-121.6" font-family="Helvetica,sans-Serif" font-size="13.00">eq_o</text>
</g>
</g>
</svg>
