<?xml version="1.0" encoding="UTF-8" standalone="no"?>
<!DOCTYPE svg PUBLIC "-//W3C//DTD SVG 1.1//EN"
 "http://www.w3.org/Graphics/SVG/1.1/DTD/svg11.dtd">
<!-- Generated by graphviz version 2.43.0 (0)
 -->
<!-- Title: ex_stage Pages: 1 -->
<svg width="1607pt" height="694pt"
 viewBox="0.00 0.00 1607.20 693.70" xmlns="http://www.w3.org/2000/svg" xmlns:xlink="http://www.w3.org/1999/xlink">
<g id="graph0" class="graph" transform="scale(1 1) rotate(0) translate(21.6 672.1)">
<title>ex_stage</title>
<polygon fill="white" stroke="transparent" points="-21.6,21.6 -21.6,-672.1 1585.6,-672.1 1585.6,21.6 -21.6,21.6"/>
<!-- id_ex_reg&#45;&gt;fwd_rs1 -->
<g id="edge1" class="edge">
<title>id_ex_reg:ne&#45;&gt;fwd_rs1:w</title>
<path fill="none" stroke="#111827" stroke-width="2" d="M123,-457C123,-457 214,-457 214,-457"/>
<polygon fill="#111827" stroke="#111827" stroke-width="2" points="214,-460.5 224,-457 214,-453.5 214,-460.5"/>
</g>
<!-- id_ex_reg&#45;&gt;fwd_rs2 -->
<g id="edge3" class="edge">
<title>id_ex_reg:se&#45;&gt;fwd_rs2:w</title>
<path fill="none" stroke="#111827" stroke-width="2" d="M123,-207C123,-207 214,-207 214,-207"/>
<polygon fill="#111827" stroke="#111827" stroke-width="2" points="214,-210.5 224,-207 214,-203.5 214,-210.5"/>
</g>
<!-- id_ex_reg&#45;&gt;op_a_mux -->
<g id="edge2" class="edge">
<title>id_ex_reg:ne&#45;&gt;op_a_mux:w</title>
<path fill="none" stroke="#111827" stroke-width="2" d="M123,-394C123,-394 660.83,-394 660.83,-394 660.83,-394 660.83,-442.5 660.83,-442.5"/>
<polygon fill="#111827" stroke="#111827" stroke-width="2" points="657.33,-442.5 660.83,-452.5 664.33,-442.5 657.33,-442.5"/>
</g>
<!-- id_ex_reg&#45;&gt;op_b_mux -->
<g id="edge4" class="edge">
<title>id_ex_reg:se&#45;&gt;op_b_mux:w</title>
<path fill="none" stroke="#111827" stroke-width="2" d="M123,-262C123,-262 603.17,-262 603.17,-262 603.17,-262 603.17,-222.5 603.17,-222.5"/>
<polygon fill="#111827" stroke="#111827" stroke-width="2" points="606.67,-222.5 603.17,-212.5 599.67,-222.5 606.67,-222.5"/>
</g>
<!-- id_ex_reg&#45;&gt;csr -->
<g id="edge5" class="edge">
<title>id_ex_reg:se&#45;&gt;csr:w</title>
<path fill="none" stroke="#111827" stroke-width="2" d="M123,-279C123,-279 1192,-279 1192,-279 1192,-279 1192,-42.5 1192,-42.5"/>
<polygon fill="#111827" stroke="#111827" stroke-width="2" points="1195.5,-42.5 1192,-32.5 1188.5,-42.5 1195.5,-42.5"/>
</g>
<!-- ex_mem_fwd&#45;&gt;fwd_rs1 -->
<g id="edge6" class="edge">
<title>ex_mem_fwd:e&#45;&gt;fwd_rs1:w</title>
<path fill="none" stroke="#ef4444" stroke-width="2" stroke-dasharray="5,2" d="M139.7,-532.5C139.7,-532.5 139.7,-480 139.7,-480 139.7,-480 214,-480 214,-480"/>
<polygon fill="#ef4444" stroke="#ef4444" stroke-width="2" points="214,-483.5 224,-480 214,-476.5 214,-483.5"/>
</g>
<!-- ex_mem_fwd&#45;&gt;fwd_rs2 -->
<g id="edge7" class="edge">
<title>ex_mem_fwd:e&#45;&gt;fwd_rs2:w</title>
<path fill="none" stroke="#ef4444" stroke-width="2" stroke-dasharray="5,2" d="M131.1,-532.5C131.1,-532.5 131.1,-226 131.1,-226 131.1,-226 214,-226 214,-226"/>
<polygon fill="#ef4444" stroke="#ef4444" stroke-width="2" points="214,-229.5 224,-226 214,-222.5 214,-229.5"/>
</g>
<!-- mem_wb_fwd&#45;&gt;fwd_rs1 -->
<g id="edge8" class="edge">
<title>mem_wb_fwd:e&#45;&gt;fwd_rs1:w</title>
<path fill="none" stroke="#a855f7" stroke-width="2" stroke-dasharray="5,2" d="M126.8,-132.5C126.8,-132.5 126.8,-438 126.8,-438 126.8,-438 214,-438 214,-438"/>
<polygon fill="#a855f7" stroke="#a855f7" stroke-width="2" points="214,-441.5 224,-438 214,-434.5 214,-441.5"/>
</g>
<!-- mem_wb_fwd&#45;&gt;fwd_rs2 -->
<g id="edge9" class="edge">
<title>mem_wb_fwd:e&#45;&gt;fwd_rs2:w</title>
<path fill="none" stroke="#a855f7" stroke-width="2" stroke-dasharray="5,2" d="M135.4,-132.5C135.4,-132.5 135.4,-184 135.4,-184 135.4,-184 214,-184 214,-184"/>
<polygon fill="#a855f7" stroke="#a855f7" stroke-width="2" points="214,-187.5 224,-184 214,-180.5 214,-187.5"/>
</g>
<!-- fwd_rs1&#45;&gt;op_a_mux -->
<g id="edge10" class="edge">
<title>fwd_rs1:e&#45;&gt;op_a_mux:w</title>
<path fill="none" stroke="#111827" stroke-width="2" d="M440,-452C440,-452 535,-452 535,-452"/>
<polygon fill="#111827" stroke="#111827" stroke-width="2" points="535,-455.5 545,-452 535,-448.5 535,-455.5"/>
</g>
<!-- fwd_rs1&#45;&gt;branch -->
<g id="edge18" class="edge">
<title>fwd_rs1:n&#45;&gt;branch:nw</title>
<path fill="none" stroke="#111827" stroke-width="2" d="M431.5,-485.5C431.5,-485.5 431.5,-606 431.5,-606 431.5,-606 1089,-606 1089,-606"/>
<polygon fill="#111827" stroke="#111827" stroke-width="2" points="1089,-609.5 1099,-606 1089,-602.5 1089,-609.5"/>
</g>
<!-- fwd_rs2&#45;&gt;op_b_mux -->
<g id="edge11" class="edge">
<title>fwd_rs2:e&#45;&gt;op_b_mux:w</title>
<path fill="none" stroke="#111827" stroke-width="2" d="M440,-201C440,-201 535,-201 535,-201"/>
<polygon fill="#111827" stroke="#111827" stroke-width="2" points="535,-204.5 545,-201 535,-197.5 535,-204.5"/>
</g>
<!-- fwd_rs2&#45;&gt;branch -->
<g id="edge19" class="edge">
<title>fwd_rs2:n&#45;&gt;branch:ne</title>
<path fill="none" stroke="#111827" stroke-width="2" d="M332,-223C332,-223 492.75,-223 492.75,-223 492.75,-223 492.75,-598 492.75,-598 492.75,-598 1275,-598 1275,-598"/>
<polygon fill="#111827" stroke="#111827" stroke-width="2" points="1275,-601.5 1285,-598 1275,-594.5 1275,-601.5"/>
</g>
<!-- op_a_mux&#45;&gt;alu -->
<g id="edge12" class="edge">
<title>op_a_mux:e&#45;&gt;alu:w</title>
<path fill="none" stroke="#111827" stroke-width="2" d="M719,-452C719,-452 823,-452 823,-452"/>
<polygon fill="#111827" stroke="#111827" stroke-width="2" points="823,-455.5 833,-452 823,-448.5 823,-455.5"/>
</g>
<!-- op_a_mux&#45;&gt;muldiv -->
<g id="edge14" class="edge">
<title>op_a_mux:e&#45;&gt;muldiv:nw</title>
<path fill="none" stroke="#111827" stroke-width="2" d="M719,-468C719,-468 753.17,-468 753.17,-468 753.17,-468 753.17,-228 753.17,-228 753.17,-228 823,-228 823,-228"/>
<polygon fill="#111827" stroke="#111827" stroke-width="2" points="823,-231.5 833,-228 823,-224.5 823,-231.5"/>
</g>
<!-- op_b_mux&#45;&gt;alu -->
<g id="edge15" class="edge">
<title>op_b_mux:e&#45;&gt;alu:sw</title>
<path fill="none" stroke="#111827" stroke-width="2" d="M719,-196C719,-196 735.83,-196 735.83,-196 735.83,-196 735.83,-436 735.83,-436 735.83,-436 823,-436 823,-436"/>
<polygon fill="#111827" stroke="#111827" stroke-width="2" points="823,-439.5 833,-436 823,-432.5 823,-439.5"/>
</g>
<!-- op_b_mux&#45;&gt;muldiv -->
<g id="edge13" class="edge">
<title>op_b_mux:e&#45;&gt;muldiv:w</title>
<path fill="none" stroke="#111827" stroke-width="2" d="M719,-212C719,-212 823,-212 823,-212"/>
<polygon fill="#111827" stroke="#111827" stroke-width="2" points="823,-215.5 833,-212 823,-208.5 823,-215.5"/>
</g>
<!-- alu&#45;&gt;res_mux -->
<g id="edge16" class="edge">
<title>alu:e&#45;&gt;res_mux:nw</title>
<path fill="none" stroke="#111827" stroke-width="2" d="M912,-452.5C912,-452.5 912,-332 912,-332 912,-332 1095,-332 1095,-332"/>
<polygon fill="#111827" stroke="#111827" stroke-width="2" points="1095,-335.5 1105,-332 1095,-328.5 1095,-335.5"/>
</g>
<!-- muldiv&#45;&gt;res_mux -->
<g id="edge17" class="edge">
<title>muldiv:e&#45;&gt;res_mux:sw</title>
<path fill="none" stroke="#111827" stroke-width="2" d="M991,-212C991,-212 1109.25,-212 1109.25,-212 1109.25,-212 1109.25,-286.5 1109.25,-286.5"/>
<polygon fill="#111827" stroke="#111827" stroke-width="2" points="1105.75,-286.5 1109.25,-296.5 1112.75,-286.5 1105.75,-286.5"/>
</g>
<!-- res_mux&#45;&gt;branch -->
<g id="edge20" class="edge">
<title>res_mux:n&#45;&gt;branch:s</title>
<path fill="none" stroke="#111827" stroke-width="2" d="M1192,-368.5C1192,-368.5 1192,-549.5 1192,-549.5"/>
<polygon fill="#111827" stroke="#111827" stroke-width="2" points="1188.5,-549.5 1192,-559.5 1195.5,-549.5 1188.5,-549.5"/>
</g>
<!-- res_mux&#45;&gt;ex_mem_reg -->
<g id="edge22" class="edge">
<title>res_mux:e&#45;&gt;ex_mem_reg:w</title>
<path fill="none" stroke="#111827" stroke-width="2" d="M1279,-324C1279,-324 1431,-324 1431,-324"/>
<polygon fill="#111827" stroke="#111827" stroke-width="2" points="1431,-327.5 1441,-324 1431,-320.5 1431,-327.5"/>
</g>
<!-- branch&#45;&gt;ex_mem_reg -->
<g id="edge23" class="edge">
<title>branch:s&#45;&gt;ex_mem_reg:n</title>
<path fill="none" stroke="#111827" stroke-width="2" d="M1282,-559.5C1282,-559.5 1282,-340 1282,-340 1282,-340 1482,-340 1482,-340"/>
<polygon fill="#111827" stroke="#111827" stroke-width="2" points="1482,-343.5 1492,-340 1482,-336.5 1482,-343.5"/>
</g>
<!-- branch&#45;&gt;pc_reg -->
<g id="edge25" class="edge">
<title>branch:e&#45;&gt;pc_reg:w</title>
<path fill="none" stroke="#dc2626" stroke-width="2" stroke-dasharray="5,2" d="M1285,-572C1285,-572 1410,-572 1410,-572"/>
<polygon fill="#dc2626" stroke="#dc2626" stroke-width="2" points="1410,-575.5 1420,-572 1410,-568.5 1410,-575.5"/>
</g>
<!-- trap&#45;&gt;csr -->
<g id="edge21" class="edge">
<title>trap:e&#45;&gt;csr:w</title>
<path fill="none" stroke="#111827" stroke-width="2" d="M1005,-32C1005,-32 1103,-32 1103,-32"/>
<polygon fill="#111827" stroke="#111827" stroke-width="2" points="1103,-35.5 1113,-32 1103,-28.5 1103,-35.5"/>
</g>
<!-- csr&#45;&gt;ex_mem_reg -->
<g id="edge24" class="edge">
<title>csr:e&#45;&gt;ex_mem_reg:s</title>
<path fill="none" stroke="#111827" stroke-width="2" d="M1271,-32C1271,-32 1492,-32 1492,-32 1492,-32 1492,-297.5 1492,-297.5"/>
<polygon fill="#111827" stroke="#111827" stroke-width="2" points="1488.5,-297.5 1492,-307.5 1495.5,-297.5 1488.5,-297.5"/>
</g>
<!-- title -->
<g id="node1" class="node">
<title>title</title>
<text text-anchor="middle" x="712" y="-627.5" font-family="Helvetica,sans-Serif" font-size="20.00" fill="#7f1d1d">EX Stage — Operand Muxes, ALU, MUL/DIV, Branch, CSR</text>
</g>
<!-- ex_label -->
<g id="node2" class="node">
<title>ex_label</title>
<text text-anchor="middle" x="712" y="-566.9" font-family="Helvetica,sans-Serif" font-size="22.00" fill="#7f1d1d">EX Stage</text>
</g>
<!-- id_ex_reg -->
<g id="node3" class="node">
<title>id_ex_reg</title>
<path fill="#9ca3af" stroke="#6b7280" stroke-width="2" d="M110.5,-476.5C110.5,-476.5 33.5,-476.5 33.5,-476.5 27.5,-476.5 21.5,-470.5 21.5,-464.5 21.5,-464.5 21.5,-200.5 21.5,-200.5 21.5,-194.5 27.5,-188.5 33.5,-188.5 33.5,-188.5 110.5,-188.5 110.5,-188.5 116.5,-188.5 122.5,-194.5 122.5,-200.5 122.5,-200.5 122.5,-464.5 122.5,-464.5 122.5,-470.5 116.5,-476.5 110.5,-476.5"/>
<text text-anchor="middle" x="72" y="-328.1" font-family="Helvetica,sans-Serif" font-size="18.00">ID/EX</text>
</g>
<!-- ex_mem_fwd -->
<g id="node4" class="node">
<title>ex_mem_fwd</title>
<path fill="#fecaca" stroke="#f87171" stroke-width="2" d="M132,-565C132,-565 12,-565 12,-565 6,-565 0,-559 0,-553 0,-553 0,-512 0,-512 0,-506 6,-500 12,-500 12,-500 132,-500 132,-500 138,-500 144,-506 144,-512 144,-512 144,-553 144,-553 144,-559 138,-565 132,-565"/>
<text text-anchor="middle" x="72" y="-536.1" font-family="Helvetica,sans-Serif" font-size="13.00">EX/MEM fwd</text>
<text text-anchor="middle" x="72" y="-522.1" font-family="Helvetica,sans-Serif" font-size="13.00">alu_result / rd</text>
</g>
<!-- mem_wb_fwd -->
<g id="node5" class="node">
<title>mem_wb_fwd</title>
<path fill="#e9d5ff" stroke="#a855f7" stroke-width="2" d="M132,-165C132,-165 12,-165 12,-165 6,-165 0,-159 0,-153 0,-153 0,-112 0,-112 0,-106 6,-100 12,-100 12,-100 132,-100 132,-100 138,-100 144,-106 144,-112 144,-112 144,-153 144,-153 144,-159 138,-165 132,-165"/>
<text text-anchor="middle" x="72" y="-136.1" font-family="Helvetica,sans-Serif" font-size="13.00">MEM/WB fwd</text>
<text text-anchor="middle" x="72" y="-122.1" font-family="Helvetica,sans-Serif" font-size="13.00">wb_result / rd</text>
</g>
<!-- fwd_rs1 -->
<g id="node6" class="node">
<title>fwd_rs1</title>
<path fill="#fecaca" stroke="#f87171" stroke-width="2" d="M428,-485C428,-485 236,-485 236,-485 230,-485 224,-479 224,-473 224,-473 224,-432 224,-432 224,-426 230,-420 236,-420 236,-420 428,-420 428,-420 434,-420 440,-426 440,-432 440,-432 440,-473 440,-473 440,-479 434,-485 428,-485"/>
<text text-anchor="middle" x="332" y="-455.9" font-family="Helvetica,sans-Serif" font-size="12.00">FWD mux A</text>
<text text-anchor="middle" x="332" y="-442.9" font-family="Helvetica,sans-Serif" font-size="12.00">FWD_NONE | EXMEM | MEMWB</text>
</g>
<!-- fwd_rs2 -->
<g id="node7" class="node">
<title>fwd_rs2</title>
<path fill="#fecaca" stroke="#f87171" stroke-width="2" d="M428,-245C428,-245 236,-245 236,-245 230,-245 224,-239 224,-233 224,-233 224,-192 224,-192 224,-186 230,-180 236,-180 236,-180 428,-180 428,-180 434,-180 440,-186 440,-192 440,-192 440,-233 440,-233 440,-239 434,-245 428,-245"/>
<text text-anchor="middle" x="332" y="-215.9" font-family="Helvetica,sans-Serif" font-size="12.00">FWD mux B</text>
<text text-anchor="middle" x="332" y="-202.9" font-family="Helvetica,sans-Serif" font-size="12.00">FWD_NONE | EXMEM | MEMWB</text>
</g>
<!-- op_a_mux -->
<g id="node8" class="node">
<title>op_a_mux</title>
<path fill="#fecaca" stroke="#f87171" stroke-width="2" d="M706.5,-485C706.5,-485 557.5,-485 557.5,-485 551.5,-485 545.5,-479 545.5,-473 545.5,-473 545.5,-432 545.5,-432 545.5,-426 551.5,-420 557.5,-420 557.5,-420 706.5,-420 706.5,-420 712.5,-420 718.5,-426 718.5,-432 718.5,-432 718.5,-473 718.5,-473 718.5,-479 712.5,-485 706.5,-485"/>
<text text-anchor="middle" x="632" y="-455.9" font-family="Helvetica,sans-Serif" font-size="12.00">Operand A mux</text>
<text text-anchor="middle" x="632" y="-442.9" font-family="Helvetica,sans-Serif" font-size="12.00">use_pc ? PC : fwd_rs1</text>
</g>
<!-- op_b_mux -->
<g id="node9" class="node">
<title>op_b_mux</title>
<path fill="#fecaca" stroke="#f87171" stroke-width="2" d="M706.5,-245C706.5,-245 557.5,-245 557.5,-245 551.5,-245 545.5,-239 545.5,-233 545.5,-233 545.5,-192 545.5,-192 545.5,-186 551.5,-180 557.5,-180 557.5,-180 706.5,-180 706.5,-180 712.5,-180 718.5,-186 718.5,-192 718.5,-192 718.5,-233 718.5,-233 718.5,-239 712.5,-245 706.5,-245"/>
<text text-anchor="middle" x="632" y="-215.9" font-family="Helvetica,sans-Serif" font-size="12.00">Operand B mux</text>
<text text-anchor="middle" x="632" y="-202.9" font-family="Helvetica,sans-Serif" font-size="12.00">use_imm ? imm : fwd_rs2</text>
</g>
<!-- alu -->
<g id="node10" class="node">
<title>alu</title>
<path fill="#fecaca" stroke="#f87171" stroke-width="2" d="M979,-485C979,-485 845,-485 845,-485 839,-485 833,-479 833,-473 833,-473 833,-432 833,-432 833,-426 839,-420 845,-420 845,-420 979,-420 979,-420 985,-420 991,-426 991,-432 991,-432 991,-473 991,-473 991,-479 985,-485 979,-485"/>
<text text-anchor="middle" x="912" y="-456.1" font-family="Helvetica,sans-Serif" font-size="13.00">kronos_alu</text>
<text text-anchor="middle" x="912" y="-442.1" font-family="Helvetica,sans-Serif" font-size="13.00">RV32I integer ops</text>
</g>
<!-- muldiv -->
<g id="node11" class="node">
<title>muldiv</title>
<path fill="#fecaca" stroke="#f87171" stroke-width="2" d="M979,-245C979,-245 845,-245 845,-245 839,-245 833,-239 833,-233 833,-233 833,-192 833,-192 833,-186 839,-180 845,-180 845,-180 979,-180 979,-180 985,-180 991,-186 991,-192 991,-192 991,-233 991,-233 991,-239 985,-245 979,-245"/>
<text text-anchor="middle" x="912" y="-216.1" font-family="Helvetica,sans-Serif" font-size="13.00">kronos_muldiv</text>
<text text-anchor="middle" x="912" y="-202.1" font-family="Helvetica,sans-Serif" font-size="13.00">multi&#45;cycle MUL/DIV</text>
</g>
<!-- res_mux -->
<g id="node12" class="node">
<title>res_mux</title>
<path fill="#fecaca" stroke="#f87171" stroke-width="2" d="M1266.5,-368.5C1266.5,-368.5 1117.5,-368.5 1117.5,-368.5 1111.5,-368.5 1105.5,-362.5 1105.5,-356.5 1105.5,-356.5 1105.5,-308.5 1105.5,-308.5 1105.5,-302.5 1111.5,-296.5 1117.5,-296.5 1117.5,-296.5 1266.5,-296.5 1266.5,-296.5 1272.5,-296.5 1278.5,-302.5 1278.5,-308.5 1278.5,-308.5 1278.5,-356.5 1278.5,-356.5 1278.5,-362.5 1272.5,-368.5 1266.5,-368.5"/>
<text text-anchor="middle" x="1192" y="-342.4" font-family="Helvetica,sans-Serif" font-size="12.00">Result mux</text>
<text text-anchor="middle" x="1192" y="-329.4" font-family="Helvetica,sans-Serif" font-size="12.00">is_muldiv ?</text>
<text text-anchor="middle" x="1192" y="-316.4" font-family="Helvetica,sans-Serif" font-size="12.00">muldiv_res : alu_res</text>
</g>
<!-- branch -->
<g id="node13" class="node">
<title>branch</title>
<path fill="#fecaca" stroke="#f87171" stroke-width="2" d="M1273.5,-625C1273.5,-625 1110.5,-625 1110.5,-625 1104.5,-625 1098.5,-619 1098.5,-613 1098.5,-613 1098.5,-572 1098.5,-572 1098.5,-566 1104.5,-560 1110.5,-560 1110.5,-560 1273.5,-560 1273.5,-560 1279.5,-560 1285.5,-566 1285.5,-572 1285.5,-572 1285.5,-613 1285.5,-613 1285.5,-619 1279.5,-625 1273.5,-625"/>
<text text-anchor="middle" x="1192" y="-595.9" font-family="Helvetica,sans-Serif" font-size="12.00">Branch resolution</text>
<text text-anchor="middle" x="1192" y="-582.9" font-family="Helvetica,sans-Serif" font-size="12.00">comparator + mispredict</text>
</g>
<!-- trap -->
<g id="node14" class="node">
<title>trap</title>
<path fill="#fecaca" stroke="#f87171" stroke-width="2" d="M993.5,-65C993.5,-65 830.5,-65 830.5,-65 824.5,-65 818.5,-59 818.5,-53 818.5,-53 818.5,-12 818.5,-12 818.5,-6 824.5,0 830.5,0 830.5,0 993.5,0 993.5,0 999.5,0 1005.5,-6 1005.5,-12 1005.5,-12 1005.5,-53 1005.5,-53 1005.5,-59 999.5,-65 993.5,-65"/>
<text text-anchor="middle" x="912" y="-35.9" font-family="Helvetica,sans-Serif" font-size="12.00">Trap priority</text>
<text text-anchor="middle" x="912" y="-22.9" font-family="Helvetica,sans-Serif" font-size="12.00">irq &gt; illegal &gt; ecall &gt; ebreak</text>
</g>
<!-- csr -->
<g id="node15" class="node">
<title>csr</title>
<path fill="#fecaca" stroke="#f87171" stroke-width="2" d="M1259,-65C1259,-65 1125,-65 1125,-65 1119,-65 1113,-59 1113,-53 1113,-53 1113,-12 1113,-12 1113,-6 1119,0 1125,0 1125,0 1259,0 1259,0 1265,0 1271,-6 1271,-12 1271,-12 1271,-53 1271,-53 1271,-59 1265,-65 1259,-65"/>
<text text-anchor="middle" x="1192" y="-36.1" font-family="Helvetica,sans-Serif" font-size="13.00">kronos_csr</text>
<text text-anchor="middle" x="1192" y="-22.1" font-family="Helvetica,sans-Serif" font-size="13.00">traps / MRET / IRQ</text>
</g>
<!-- ex_mem_reg -->
<g id="node16" class="node">
<title>ex_mem_reg</title>
<path fill="#9ca3af" stroke="#6b7280" stroke-width="2" d="M1530.5,-357.5C1530.5,-357.5 1453.5,-357.5 1453.5,-357.5 1447.5,-357.5 1441.5,-351.5 1441.5,-345.5 1441.5,-345.5 1441.5,-319.5 1441.5,-319.5 1441.5,-313.5 1447.5,-307.5 1453.5,-307.5 1453.5,-307.5 1530.5,-307.5 1530.5,-307.5 1536.5,-307.5 1542.5,-313.5 1542.5,-319.5 1542.5,-319.5 1542.5,-345.5 1542.5,-345.5 1542.5,-351.5 1536.5,-357.5 1530.5,-357.5"/>
<text text-anchor="middle" x="1492" y="-328.7" font-family="Helvetica,sans-Serif" font-size="16.00">EX/MEM</text>
</g>
<!-- pc_reg -->
<g id="node17" class="node">
<title>pc_reg</title>
<path fill="#dbeafe" stroke="#3b82f6" stroke-width="2" d="M1552,-585C1552,-585 1432,-585 1432,-585 1426,-585 1420,-579 1420,-573 1420,-573 1420,-532 1420,-532 1420,-526 1426,-520 1432,-520 1432,-520 1552,-520 1552,-520 1558,-520 1564,-526 1564,-532 1564,-532 1564,-573 1564,-573 1564,-579 1558,-585 1552,-585"/>
<text text-anchor="middle" x="1492" y="-556.1" font-family="Helvetica,sans-Serif" font-size="13.00">IF PC Register</text>
<text text-anchor="middle" x="1492" y="-542.1" font-family="Helvetica,sans-Serif" font-size="13.00">(redirect target)</text>
</g>
</g>
</svg>
