<?xml version="1.0" encoding="UTF-8" standalone="no"?>
<!DOCTYPE svg PUBLIC "-//W3C//DTD SVG 1.1//EN"
 "http://www.w3.org/Graphics/SVG/1.1/DTD/svg11.dtd">
<!-- Generated by graphviz version 2.43.0 (0)
 -->
<!-- Title: hazard_forward Pages: 1 -->
<svg width="1399pt" height="1010pt"
 viewBox="0.00 0.00 1398.70 1010.20" xmlns="http://www.w3.org/2000/svg" xmlns:xlink="http://www.w3.org/1999/xlink">
<g id="graph0" class="graph" transform="scale(1 1) rotate(0) translate(21.6 988.6)">
<title>hazard_forward</title>
<polygon fill="white" stroke="transparent" points="-21.6,21.6 -21.6,-988.6 1377.1,-988.6 1377.1,21.6 -21.6,21.6"/>
<!-- pc_reg&#45;&gt;if_id -->
<g id="edge1" class="edge">
<title>pc_reg:e&#45;&gt;if_id:w</title>
<path fill="none" stroke="#9ca3af" d="M312,-489C312,-489 478,-489 478,-489"/>
</g>
<!-- if_id&#45;&gt;id_ex -->
<g id="edge2" class="edge">
<title>if_id:e&#45;&gt;id_ex:w</title>
<path fill="none" stroke="#9ca3af" d="M572,-501C572,-501 738,-501 738,-501"/>
</g>
<!-- if_id&#45;&gt;hazard -->
<g id="edge9" class="edge">
<title>if_id:s&#45;&gt;hazard:nw</title>
<path fill="none" stroke="#eab308" stroke-width="2" stroke-dasharray="5,2" d="M525,-489C525,-489 705.67,-489 705.67,-489 705.67,-489 705.67,-378 705.67,-378"/>
<polygon fill="#eab308" stroke="#eab308" stroke-width="2" points="709.17,-378 705.67,-368 702.17,-378 709.17,-378"/>
</g>
<!-- id_ex&#45;&gt;ex_mem -->
<g id="edge3" class="edge">
<title>id_ex:e&#45;&gt;ex_mem:w</title>
<path fill="none" stroke="#9ca3af" d="M832,-489C832,-489 994,-489 994,-489"/>
</g>
<!-- id_ex&#45;&gt;forward -->
<g id="edge16" class="edge">
<title>id_ex:n&#45;&gt;forward:sw</title>
<path fill="none" stroke="#ca8a04" stroke-width="2" stroke-dasharray="5,2" d="M769.33,-514C769.33,-514 769.33,-690 769.33,-690"/>
<polygon fill="#ca8a04" stroke="#ca8a04" stroke-width="2" points="765.83,-690 769.33,-700 772.83,-690 765.83,-690"/>
</g>
<!-- id_ex&#45;&gt;hazard -->
<g id="edge10" class="edge">
<title>id_ex:s&#45;&gt;hazard:n</title>
<path fill="none" stroke="#eab308" stroke-width="2" stroke-dasharray="5,2" d="M769.33,-464C769.33,-464 769.33,-378 769.33,-378"/>
<polygon fill="#eab308" stroke="#eab308" stroke-width="2" points="772.83,-378 769.33,-368 765.83,-378 772.83,-378"/>
</g>
<!-- ex_mem&#45;&gt;mem_wb -->
<g id="edge4" class="edge">
<title>ex_mem:e&#45;&gt;mem_wb:w</title>
<path fill="none" stroke="#9ca3af" d="M1096,-489C1096,-489 1254,-489 1254,-489"/>
</g>
<!-- ex_mem&#45;&gt;forward -->
<g id="edge17" class="edge">
<title>ex_mem:n&#45;&gt;forward:s</title>
<path fill="none" stroke="#ca8a04" stroke-width="2" stroke-dasharray="5,2" d="M1045,-501C1045,-501 936.25,-501 936.25,-501 936.25,-501 936.25,-690 936.25,-690"/>
<polygon fill="#ca8a04" stroke="#ca8a04" stroke-width="2" points="932.75,-690 936.25,-700 939.75,-690 932.75,-690"/>
</g>
<!-- mem_wb&#45;&gt;forward -->
<g id="edge18" class="edge">
<title>mem_wb:n&#45;&gt;forward:se</title>
<path fill="none" stroke="#ca8a04" stroke-width="2" stroke-dasharray="5,2" d="M1305,-514C1305,-514 1305,-769 1305,-769 1305,-769 954,-769 954,-769"/>
<polygon fill="#ca8a04" stroke="#ca8a04" stroke-width="2" points="954,-765.5 944,-769 954,-772.5 954,-765.5"/>
</g>
<!-- forward&#45;&gt;id_ex -->
<g id="edge19" class="edge">
<title>forward:sw&#45;&gt;id_ex:n</title>
<path fill="none" stroke="#ca8a04" stroke-width="2" stroke-dasharray="5,2" d="M800.67,-700C800.67,-700 800.67,-524 800.67,-524"/>
<polygon fill="#ca8a04" stroke="#ca8a04" stroke-width="2" points="804.17,-524 800.67,-514 797.17,-524 804.17,-524"/>
</g>
<!-- hazard&#45;&gt;pc_reg -->
<g id="edge11" class="edge">
<title>hazard:nw&#45;&gt;pc_reg:s</title>
<path fill="none" stroke="#eab308" stroke-width="2" stroke-dasharray="5,2" d="M641,-321C641,-321 265,-321 265,-321 265,-321 265,-454 265,-454"/>
<polygon fill="#eab308" stroke="#eab308" stroke-width="2" points="261.5,-454 265,-464 268.5,-454 261.5,-454"/>
</g>
<!-- hazard&#45;&gt;if_id -->
<g id="edge12" class="edge">
<title>hazard:nw&#45;&gt;if_id:s</title>
<path fill="none" stroke="#eab308" stroke-width="2" stroke-dasharray="5,2" d="M673.33,-368C673.33,-368 673.33,-476 673.33,-476 673.33,-476 535,-476 535,-476"/>
<polygon fill="#eab308" stroke="#eab308" stroke-width="2" points="535,-472.5 525,-476 535,-479.5 535,-472.5"/>
</g>
<!-- hazard&#45;&gt;id_ex -->
<g id="edge13" class="edge">
<title>hazard:n&#45;&gt;id_ex:s</title>
<path fill="none" stroke="#eab308" stroke-width="2" stroke-dasharray="5,2" d="M800.67,-368C800.67,-368 800.67,-454 800.67,-454"/>
<polygon fill="#eab308" stroke="#eab308" stroke-width="2" points="797.17,-454 800.67,-464 804.17,-454 797.17,-454"/>
</g>
<!-- hazard&#45;&gt;ex_mem -->
<g id="edge14" class="edge">
<title>hazard:ne&#45;&gt;ex_mem:w</title>
<path fill="none" stroke="#eab308" stroke-width="2" stroke-dasharray="5,2" d="M880.5,-368C880.5,-368 880.5,-476 880.5,-476 880.5,-476 984,-476 984,-476"/>
<polygon fill="#eab308" stroke="#eab308" stroke-width="2" points="984,-479.5 994,-476 984,-472.5 984,-479.5"/>
</g>
<!-- hazard&#45;&gt;mem_wb -->
<g id="edge15" class="edge">
<title>hazard:ne&#45;&gt;mem_wb:s</title>
<path fill="none" stroke="#eab308" stroke-width="2" stroke-dasharray="5,2" d="M929,-299C929,-299 1305,-299 1305,-299 1305,-299 1305,-454 1305,-454"/>
<polygon fill="#eab308" stroke="#eab308" stroke-width="2" points="1301.5,-454 1305,-464 1308.5,-454 1301.5,-454"/>
</g>
<!-- stall_or&#45;&gt;hazard -->
<g id="edge8" class="edge">
<title>stall_or:e&#45;&gt;hazard:w</title>
<path fill="none" stroke="#eab308" stroke-width="3" d="M337,-149C337,-149 337,-276 337,-276 337,-276 631,-276 631,-276"/>
<polygon fill="#eab308" stroke="#eab308" stroke-width="3" points="631,-279.5 641,-276 631,-272.5 631,-279.5"/>
</g>
<!-- mem_stall_src&#45;&gt;stall_or -->
<g id="edge5" class="edge">
<title>mem_stall_src:n&#45;&gt;stall_or:s</title>
<path fill="none" stroke="#f97316" stroke-width="2" d="M109,-58C109,-58 109,-103 109,-103"/>
<polygon fill="#f97316" stroke="#f97316" stroke-width="2" points="105.5,-103 109,-113 112.5,-103 105.5,-103"/>
</g>
<!-- muldiv_stall_src&#45;&gt;stall_or -->
<g id="edge6" class="edge">
<title>muldiv_stall_src:n&#45;&gt;stall_or:s</title>
<path fill="none" stroke="#ef4444" stroke-width="2" d="M245,-58C245,-58 245,-103 245,-103"/>
<polygon fill="#ef4444" stroke="#ef4444" stroke-width="2" points="241.5,-103 245,-113 248.5,-103 241.5,-103"/>
</g>
<!-- fetch_stall_src&#45;&gt;stall_or -->
<g id="edge7" class="edge">
<title>fetch_stall_src:n&#45;&gt;stall_or:s</title>
<path fill="none" stroke="#3b82f6" stroke-width="2" d="M425,-29C425,-29 335,-29 335,-29 335,-29 335,-103 335,-103"/>
<polygon fill="#3b82f6" stroke="#3b82f6" stroke-width="2" points="331.5,-103 335,-113 338.5,-103 331.5,-103"/>
</g>
<!-- title -->
<g id="node1" class="node">
<title>title</title>
<text text-anchor="middle" x="725" y="-942.8" font-family="Helvetica,sans-Serif" font-size="24.00" fill="#111827">Hazard &amp; Forwarding Plane</text>
</g>
<!-- pc_reg -->
<g id="node2" class="node">
<title>pc_reg</title>
<path fill="#dbeafe" stroke="#3b82f6" stroke-width="3" d="M300,-514C300,-514 230,-514 230,-514 224,-514 218,-508 218,-502 218,-502 218,-476 218,-476 218,-470 224,-464 230,-464 230,-464 300,-464 300,-464 306,-464 312,-470 312,-476 312,-476 312,-502 312,-502 312,-508 306,-514 300,-514"/>
<text text-anchor="middle" x="265" y="-485.2" font-family="Helvetica,sans-Serif" font-size="16.00">PC</text>
</g>
<!-- if_id -->
<g id="node3" class="node">
<title>if_id</title>
<path fill="#9ca3af" stroke="#6b7280" stroke-width="2" d="M560,-514C560,-514 490,-514 490,-514 484,-514 478,-508 478,-502 478,-502 478,-476 478,-476 478,-470 484,-464 490,-464 490,-464 560,-464 560,-464 566,-464 572,-470 572,-476 572,-476 572,-502 572,-502 572,-508 566,-514 560,-514"/>
<text text-anchor="middle" x="525" y="-485.2" font-family="Helvetica,sans-Serif" font-size="16.00">IF/ID</text>
</g>
<!-- id_ex -->
<g id="node4" class="node">
<title>id_ex</title>
<path fill="#9ca3af" stroke="#6b7280" stroke-width="2" d="M820,-514C820,-514 750,-514 750,-514 744,-514 738,-508 738,-502 738,-502 738,-476 738,-476 738,-470 744,-464 750,-464 750,-464 820,-464 820,-464 826,-464 832,-470 832,-476 832,-476 832,-502 832,-502 832,-508 826,-514 820,-514"/>
<text text-anchor="middle" x="785" y="-485.2" font-family="Helvetica,sans-Serif" font-size="16.00">ID/EX</text>
</g>
<!-- ex_mem -->
<g id="node5" class="node">
<title>ex_mem</title>
<path fill="#9ca3af" stroke="#6b7280" stroke-width="2" d="M1083.5,-514C1083.5,-514 1006.5,-514 1006.5,-514 1000.5,-514 994.5,-508 994.5,-502 994.5,-502 994.5,-476 994.5,-476 994.5,-470 1000.5,-464 1006.5,-464 1006.5,-464 1083.5,-464 1083.5,-464 1089.5,-464 1095.5,-470 1095.5,-476 1095.5,-476 1095.5,-502 1095.5,-502 1095.5,-508 1089.5,-514 1083.5,-514"/>
<text text-anchor="middle" x="1045" y="-485.2" font-family="Helvetica,sans-Serif" font-size="16.00">EX/MEM</text>
</g>
<!-- mem_wb -->
<g id="node6" class="node">
<title>mem_wb</title>
<path fill="#9ca3af" stroke="#6b7280" stroke-width="2" d="M1343.5,-514C1343.5,-514 1266.5,-514 1266.5,-514 1260.5,-514 1254.5,-508 1254.5,-502 1254.5,-502 1254.5,-476 1254.5,-476 1254.5,-470 1260.5,-464 1266.5,-464 1266.5,-464 1343.5,-464 1343.5,-464 1349.5,-464 1355.5,-470 1355.5,-476 1355.5,-476 1355.5,-502 1355.5,-502 1355.5,-508 1349.5,-514 1343.5,-514"/>
<text text-anchor="middle" x="1305" y="-485.2" font-family="Helvetica,sans-Serif" font-size="16.00">MEM/WB</text>
</g>
<!-- forward -->
<g id="node7" class="node">
<title>forward</title>
<path fill="#fef08a" stroke="#facc15" stroke-width="3" d="M931.5,-837.5C931.5,-837.5 638.5,-837.5 638.5,-837.5 632.5,-837.5 626.5,-831.5 626.5,-825.5 626.5,-825.5 626.5,-712.5 626.5,-712.5 626.5,-706.5 632.5,-700.5 638.5,-700.5 638.5,-700.5 931.5,-700.5 931.5,-700.5 937.5,-700.5 943.5,-706.5 943.5,-712.5 943.5,-712.5 943.5,-825.5 943.5,-825.5 943.5,-831.5 937.5,-837.5 931.5,-837.5"/>
<text text-anchor="middle" x="785" y="-791.9" font-family="Helvetica,sans-Serif" font-size="12.00" fill="#713f12">kronos_forward</text>
<text text-anchor="middle" x="785" y="-778.9" font-family="Helvetica,sans-Serif" font-size="12.00" fill="#713f12">FWD_NONE | EXMEM | MEMWB select</text>
<text text-anchor="middle" x="785" y="-765.9" font-family="Helvetica,sans-Serif" font-size="12.00" fill="#713f12">in: &#160;ex_mem.rd/wen, mem_wb.rd/wen</text>
<text text-anchor="middle" x="785" y="-752.9" font-family="Helvetica,sans-Serif" font-size="12.00" fill="#713f12"> &#160;&#160;&#160;&#160;id_ex.rs1, rs2</text>
<text text-anchor="middle" x="785" y="-739.9" font-family="Helvetica,sans-Serif" font-size="12.00" fill="#713f12">out: fwd_rs1_sel, fwd_rs2_sel → id_ex</text>
</g>
<!-- hazard -->
<g id="node8" class="node">
<title>hazard</title>
<path fill="#fef08a" stroke="#facc15" stroke-width="3" d="M917,-367.5C917,-367.5 653,-367.5 653,-367.5 647,-367.5 641,-361.5 641,-355.5 641,-355.5 641,-242.5 641,-242.5 641,-236.5 647,-230.5 653,-230.5 653,-230.5 917,-230.5 917,-230.5 923,-230.5 929,-236.5 929,-242.5 929,-242.5 929,-355.5 929,-355.5 929,-361.5 923,-367.5 917,-367.5"/>
<text text-anchor="middle" x="785" y="-328.4" font-family="Helvetica,sans-Serif" font-size="12.00" fill="#713f12">kronos_hazard</text>
<text text-anchor="middle" x="785" y="-315.4" font-family="Helvetica,sans-Serif" font-size="12.00" fill="#713f12">stall / flush logic</text>
<text text-anchor="middle" x="785" y="-302.4" font-family="Helvetica,sans-Serif" font-size="12.00" fill="#713f12">in: &#160;id_ex.rd, is_load, valid</text>
<text text-anchor="middle" x="785" y="-289.4" font-family="Helvetica,sans-Serif" font-size="12.00" fill="#713f12"> &#160;&#160;&#160;&#160;if_id.rs1, rs2</text>
<text text-anchor="middle" x="785" y="-276.4" font-family="Helvetica,sans-Serif" font-size="12.00" fill="#713f12">out: pc_en, if_id/id_ex flush</text>
<text text-anchor="middle" x="785" y="-263.4" font-family="Helvetica,sans-Serif" font-size="12.00" fill="#713f12"> &#160;&#160;&#160;&#160;ex_mem/mem_wb enables</text>
</g>
<!-- stall_or -->
<g id="node9" class="node">
<title>stall_or</title>
<path fill="#fef9c3" stroke="#eab308" stroke-width="2" d="M350,-185C350,-185 100,-185 100,-185 94,-185 88,-179 88,-173 88,-173 88,-125 88,-125 88,-119 94,-113 100,-113 100,-113 350,-113 350,-113 356,-113 362,-119 362,-125 362,-125 362,-173 362,-173 362,-179 356,-185 350,-185"/>
<text text-anchor="middle" x="225" y="-152.6" font-family="Helvetica,sans-Serif" font-size="13.00" fill="#713f12">combined_stall</text>
<text text-anchor="middle" x="225" y="-138.6" font-family="Helvetica,sans-Serif" font-size="13.00" fill="#713f12">mem_stall | muldiv_stall | fetch_stall</text>
</g>
<!-- mem_stall_src -->
<g id="node10" class="node">
<title>mem_stall_src</title>
<path fill="#ffedd5" stroke="#f97316" stroke-width="2" d="M118,-58C118,-58 12,-58 12,-58 6,-58 0,-52 0,-46 0,-46 0,-12 0,-12 0,-6 6,0 12,0 12,0 118,0 118,0 124,0 130,-6 130,-12 130,-12 130,-46 130,-46 130,-52 124,-58 118,-58"/>
<text text-anchor="middle" x="65" y="-32.6" font-family="Helvetica,sans-Serif" font-size="13.00">mem_stall</text>
<text text-anchor="middle" x="65" y="-18.6" font-family="Helvetica,sans-Serif" font-size="13.00">(LSU busy)</text>
</g>
<!-- muldiv_stall_src -->
<g id="node11" class="node">
<title>muldiv_stall_src</title>
<path fill="#fee2e2" stroke="#ef4444" stroke-width="2" d="M298,-58C298,-58 192,-58 192,-58 186,-58 180,-52 180,-46 180,-46 180,-12 180,-12 180,-6 186,0 192,0 192,0 298,0 298,0 304,0 310,-6 310,-12 310,-12 310,-46 310,-46 310,-52 304,-58 298,-58"/>
<text text-anchor="middle" x="245" y="-32.6" font-family="Helvetica,sans-Serif" font-size="13.00">muldiv_stall</text>
<text text-anchor="middle" x="245" y="-18.6" font-family="Helvetica,sans-Serif" font-size="13.00">(MUL/DIV busy)</text>
</g>
<!-- fetch_stall_src -->
<g id="node12" class="node">
<title>fetch_stall_src</title>
<path fill="#dbeafe" stroke="#3b82f6" stroke-width="2" d="M478,-58C478,-58 372,-58 372,-58 366,-58 360,-52 360,-46 360,-46 360,-12 360,-12 360,-6 366,0 372,0 372,0 478,0 478,0 484,0 490,-6 490,-12 490,-12 490,-46 490,-46 490,-52 484,-58 478,-58"/>
<text text-anchor="middle" x="425" y="-32.6" font-family="Helvetica,sans-Serif" font-size="13.00">instr_fetch_stall</text>
<text text-anchor="middle" x="425" y="-18.6" font-family="Helvetica,sans-Serif" font-size="13.00">(align empty)</text>
</g>
</g>
</svg>
