<?xml version="1.0" encoding="UTF-8" standalone="no"?>
<!DOCTYPE svg PUBLIC "-//W3C//DTD SVG 1.1//EN"
 "http://www.w3.org/Graphics/SVG/1.1/DTD/svg11.dtd">
<!-- Generated by graphviz version 2.43.0 (0)
 -->
<!-- Title: id_stage Pages: 1 -->
<svg width="1194pt" height="697pt"
 viewBox="0.00 0.00 1194.20 697.20" xmlns="http://www.w3.org/2000/svg" xmlns:xlink="http://www.w3.org/1999/xlink">
<g id="graph0" class="graph" transform="scale(1 1) rotate(0) translate(21.6 675.6)">
<title>id_stage</title>
<polygon fill="white" stroke="transparent" points="-21.6,21.6 -21.6,-675.6 1172.6,-675.6 1172.6,21.6 -21.6,21.6"/>
<!-- if_id_reg&#45;&gt;decode -->
<g id="edge1" class="edge">
<title>if_id_reg:e&#45;&gt;decode:w</title>
<path fill="none" stroke="#111827" stroke-width="2" d="M43,-336C43,-336 43,-476 43,-476 43,-476 440,-476 440,-476"/>
<polygon fill="#111827" stroke="#111827" stroke-width="2" points="440,-479.5 450,-476 440,-472.5 440,-479.5"/>
</g>
<!-- if_id_reg&#45;&gt;regfile -->
<g id="edge2" class="edge">
<title>if_id_reg:e&#45;&gt;regfile:w</title>
<path fill="none" stroke="#111827" stroke-width="2" d="M43,-336C43,-336 43,-196 43,-196 43,-196 440,-196 440,-196"/>
<polygon fill="#111827" stroke="#111827" stroke-width="2" points="440,-199.5 450,-196 440,-192.5 440,-199.5"/>
</g>
<!-- decode&#45;&gt;id_ex_reg -->
<g id="edge5" class="edge">
<title>decode:e&#45;&gt;id_ex_reg:w</title>
<path fill="none" stroke="#111827" stroke-width="2" d="M636,-476C636,-476 1043,-476 1043,-476 1043,-476 1043,-346 1043,-346"/>
<polygon fill="#111827" stroke="#111827" stroke-width="2" points="1046.5,-346 1043,-336 1039.5,-346 1046.5,-346"/>
</g>
<!-- decode&#45;&gt;regfile -->
<g id="edge3" class="edge">
<title>decode:s&#45;&gt;regfile:n</title>
<path fill="none" stroke="#111827" stroke-width="2" d="M543,-437C543,-437 543,-245 543,-245"/>
<polygon fill="#111827" stroke="#111827" stroke-width="2" points="546.5,-245 543,-235 539.5,-245 546.5,-245"/>
</g>
<!-- regfile&#45;&gt;bypass_mux -->
<g id="edge4" class="edge">
<title>regfile:e&#45;&gt;bypass_mux:w</title>
<path fill="none" stroke="#111827" stroke-width="2" d="M636,-186C636,-186 925,-186 925,-186"/>
<polygon fill="#111827" stroke="#111827" stroke-width="2" points="925,-189.5 935,-186 925,-182.5 925,-189.5"/>
</g>
<!-- bypass_mux&#45;&gt;id_ex_reg -->
<g id="edge6" class="edge">
<title>bypass_mux:n&#45;&gt;id_ex_reg:s</title>
<path fill="none" stroke="#111827" stroke-width="2" d="M1043,-215C1043,-215 1043,-301 1043,-301"/>
<polygon fill="#111827" stroke="#111827" stroke-width="2" points="1039.5,-301 1043,-311 1046.5,-301 1039.5,-301"/>
</g>
<!-- wb_result&#45;&gt;bypass_mux -->
<g id="edge7" class="edge">
<title>wb_result:n&#45;&gt;bypass_mux:s</title>
<path fill="none" stroke="#a855f7" stroke-width="2" stroke-dasharray="5,2" d="M1043,-72C1043,-72 1043,-127 1043,-127"/>
<polygon fill="#a855f7" stroke="#a855f7" stroke-width="2" points="1039.5,-127 1043,-137 1046.5,-127 1039.5,-127"/>
</g>
<!-- title -->
<g id="node1" class="node">
<title>title</title>
<text text-anchor="middle" x="543" y="-630.4" font-family="Helvetica,sans-Serif" font-size="22.00" fill="#14532d">ID Stage — Decode, Regfile, WB→ID Bypass</text>
</g>
<!-- id_label -->
<g id="node2" class="node">
<title>id_label</title>
<text text-anchor="middle" x="543" y="-550.4" font-family="Helvetica,sans-Serif" font-size="22.00" fill="#14532d">ID Stage</text>
</g>
<!-- if_id_reg -->
<g id="node3" class="node">
<title>if_id_reg</title>
<path fill="#9ca3af" stroke="#6b7280" stroke-width="2" d="M74,-361C74,-361 12,-361 12,-361 6,-361 0,-355 0,-349 0,-349 0,-323 0,-323 0,-317 6,-311 12,-311 12,-311 74,-311 74,-311 80,-311 86,-317 86,-323 86,-323 86,-349 86,-349 86,-355 80,-361 74,-361"/>
<text text-anchor="middle" x="43" y="-331.6" font-family="Helvetica,sans-Serif" font-size="18.00">IF/ID</text>
</g>
<!-- id_ex_reg -->
<g id="node4" class="node">
<title>id_ex_reg</title>
<path fill="#9ca3af" stroke="#6b7280" stroke-width="2" d="M1074,-361C1074,-361 1012,-361 1012,-361 1006,-361 1000,-355 1000,-349 1000,-349 1000,-323 1000,-323 1000,-317 1006,-311 1012,-311 1012,-311 1074,-311 1074,-311 1080,-311 1086,-317 1086,-323 1086,-323 1086,-349 1086,-349 1086,-355 1080,-361 1074,-361"/>
<text text-anchor="middle" x="1043" y="-331.6" font-family="Helvetica,sans-Serif" font-size="18.00">ID/EX</text>
</g>
<!-- decode -->
<g id="node5" class="node">
<title>decode</title>
<path fill="#bbf7d0" stroke="#4ade80" stroke-width="2" d="M624.5,-515.5C624.5,-515.5 461.5,-515.5 461.5,-515.5 455.5,-515.5 449.5,-509.5 449.5,-503.5 449.5,-503.5 449.5,-448.5 449.5,-448.5 449.5,-442.5 455.5,-436.5 461.5,-436.5 461.5,-436.5 624.5,-436.5 624.5,-436.5 630.5,-436.5 636.5,-442.5 636.5,-448.5 636.5,-448.5 636.5,-503.5 636.5,-503.5 636.5,-509.5 630.5,-515.5 624.5,-515.5"/>
<text text-anchor="middle" x="543" y="-489.5" font-family="Helvetica,sans-Serif" font-size="15.00">kronos_decode</text>
<text text-anchor="middle" x="543" y="-472.5" font-family="Helvetica,sans-Serif" font-size="15.00">RV32IMC decoder</text>
<text text-anchor="middle" x="543" y="-455.5" font-family="Helvetica,sans-Serif" font-size="15.00">(control + imm)</text>
</g>
<!-- regfile -->
<g id="node6" class="node">
<title>regfile</title>
<path fill="#bbf7d0" stroke="#4ade80" stroke-width="2" d="M624.5,-235.5C624.5,-235.5 461.5,-235.5 461.5,-235.5 455.5,-235.5 449.5,-229.5 449.5,-223.5 449.5,-223.5 449.5,-168.5 449.5,-168.5 449.5,-162.5 455.5,-156.5 461.5,-156.5 461.5,-156.5 624.5,-156.5 624.5,-156.5 630.5,-156.5 636.5,-162.5 636.5,-168.5 636.5,-168.5 636.5,-223.5 636.5,-223.5 636.5,-229.5 630.5,-235.5 624.5,-235.5"/>
<text text-anchor="middle" x="543" y="-209.5" font-family="Helvetica,sans-Serif" font-size="15.00">kronos_regfile</text>
<text text-anchor="middle" x="543" y="-192.5" font-family="Helvetica,sans-Serif" font-size="15.00">32×32b async read</text>
<text text-anchor="middle" x="543" y="-175.5" font-family="Helvetica,sans-Serif" font-size="15.00">(rs1, rs2)</text>
</g>
<!-- bypass_mux -->
<g id="node7" class="node">
<title>bypass_mux</title>
<path fill="#bbf7d0" stroke="#4ade80" stroke-width="2" d="M1139,-215.5C1139,-215.5 947,-215.5 947,-215.5 941,-215.5 935,-209.5 935,-203.5 935,-203.5 935,-148.5 935,-148.5 935,-142.5 941,-136.5 947,-136.5 947,-136.5 1139,-136.5 1139,-136.5 1145,-136.5 1151,-142.5 1151,-148.5 1151,-148.5 1151,-203.5 1151,-203.5 1151,-209.5 1145,-215.5 1139,-215.5"/>
<text text-anchor="middle" x="1043" y="-179.8" font-family="Helvetica,sans-Serif" font-size="14.00">WB → ID bypass mux</text>
<text text-anchor="middle" x="1043" y="-164.8" font-family="Helvetica,sans-Serif" font-size="14.00">sel = wb_wen &amp; (rd == rs)</text>
</g>
<!-- wb_result -->
<g id="node8" class="node">
<title>wb_result</title>
<path fill="#f3e8ff" stroke="#a855f7" stroke-width="2" d="M1132,-72C1132,-72 954,-72 954,-72 948,-72 942,-66 942,-60 942,-60 942,-12 942,-12 942,-6 948,0 954,0 954,0 1132,0 1132,0 1138,0 1144,-6 1144,-12 1144,-12 1144,-60 1144,-60 1144,-66 1138,-72 1132,-72"/>
<text text-anchor="middle" x="1043" y="-41" font-family="Helvetica,sans-Serif" font-size="15.00">WB stage</text>
<text text-anchor="middle" x="1043" y="-24" font-family="Helvetica,sans-Serif" font-size="15.00">wb_result / wb_wen / rd</text>
</g>
</g>
</svg>
